ffmpeg started on 2016-12-06 at 04:49:56
Report written to "Output/x264/results/ffmpeg/crowd_run_2160p50fast4000k.log"
Command line:
Tools/ffmpeg/ffmpeg -benchmark -y -i Input/y4m/crowd_run_2160p50.y4m -c:v libx264 -preset fast -b:v 4000k -an Output/x264/encoded/crowd_run_2160p50fast4000k.mkv
ffmpeg version N-82227-gdb23fde Copyright (c) 2000-2016 the FFmpeg developers
  built with gcc 5.4.0 (Ubuntu 5.4.0-6ubuntu1~16.04.2) 20160609
  configuration: --prefix=/home/jaroslav/ffmpeg_build --pkg-config-flags=--static --extra-cflags=-I/home/jaroslav/ffmpeg_build/include --extra-ldflags=-L/home/jaroslav/ffmpeg_build/lib --bindir=/home/jaroslav/bin --enable-gpl --enable-libass --enable-libfdk-aac --enable-libfreetype --enable-libmp3lame --enable-libopus --enable-libtheora --enable-libvorbis --enable-libvpx --enable-libx264 --enable-libx265 --enable-nvenc --enable-libmfx --enable-libxvid --enable-libgsm --enable-libopencore-amrnb --enable-version3 --enable-nonfree
  libavutil      55. 35.100 / 55. 35.100
  libavcodec     57. 66.101 / 57. 66.101
  libavformat    57. 57.100 / 57. 57.100
  libavdevice    57.  2.100 / 57.  2.100
  libavfilter     6. 66.100 /  6. 66.100
  libswscale      4.  3.100 /  4.  3.100
  libswresample   2.  4.100 /  2.  4.100
  libpostproc    54.  2.100 / 54.  2.100
Input #0, yuv4mpegpipe, from 'Input/y4m/crowd_run_2160p50.y4m':
  Duration: 00:00:10.00, start: 0.000000, bitrate: 4976642 kb/s
    Stream #0:0: Video: rawvideo (I420 / 0x30323449), yuv420p(progressive), 3840x2160, SAR 1:1 DAR 16:9, 50 fps, 50 tbr, 50 tbn, 50 tbc
[libx264 @ 0x36cd1c0] using SAR=1/1
[libx264 @ 0x36cd1c0] using cpu capabilities: MMX2 SSE2Fast SSSE3 SSE4.2 AVX FMA3 AVX2 LZCNT BMI2
[libx264 @ 0x36cd1c0] profile High, level 5.2
[libx264 @ 0x36cd1c0] 264 - core 148 - H.264/MPEG-4 AVC codec - Copyleft 2003-2016 - http://www.videolan.org/x264.html - options: cabac=1 ref=2 deblock=1:0:0 analyse=0x3:0x113 me=hex subme=6 psy=1 psy_rd=1.00:0.00 mixed_ref=1 me_range=16 chroma_me=1 trellis=1 8x8dct=1 cqm=0 deadzone=21,11 fast_pskip=1 chroma_qp_offset=-2 threads=6 lookahead_threads=1 sliced_threads=0 nr=0 decimate=1 interlaced=0 bluray_compat=0 constrained_intra=0 bframes=3 b_pyramid=2 b_adapt=1 b_bias=0 direct=1 weightb=1 open_gop=0 weightp=1 keyint=250 keyint_min=25 scenecut=40 intra_refresh=0 rc_lookahead=30 rc=abr mbtree=1 bitrate=4000 ratetol=1.0 qcomp=0.60 qpmin=0 qpmax=69 qpstep=4 ip_ratio=1.40 aq=1:1.00
Output #0, matroska, to 'Output/x264/encoded/crowd_run_2160p50fast4000k.mkv':
  Metadata:
    encoder         : Lavf57.57.100
    Stream #0:0: Video: h264 (libx264) (H264 / 0x34363248), yuv420p, 3840x2160 [SAR 1:1 DAR 16:9], q=-1--1, 4000 kb/s, 50 fps, 1k tbn, 50 tbc
    Metadata:
      encoder         : Lavc57.66.101 libx264
    Side data:
      cpb: bitrate max/min/avg: 0/0/4000000 buffer size: 0 vbv_delay: -1
Stream mapping:
  Stream #0:0 -> #0:0 (rawvideo (native) -> h264 (libx264))
Press [q] to stop, [?] for help
frame=   19 fps=0.0 q=0.0 size=       0kB time=00:00:00.00 bitrate=N/A speed=   0x    frame=   36 fps= 35 q=0.0 size=       0kB time=00:00:00.00 bitrate=N/A speed=   0x    frame=   37 fps= 14 q=0.0 size=       0kB time=00:00:00.00 bitrate=N/A speed=   0x    frame=   44 fps= 14 q=43.0 size=       1kB time=00:00:00.02 bitrate= 279.6kbits/s speed=0.00648x    frame=   51 fps= 14 q=53.0 size=       1kB time=00:00:00.16 bitrate=  36.5kbits/s speed=0.0428x    frame=   57 fps= 13 q=58.0 size=       1kB time=00:00:00.28 bitrate=  20.9kbits/s speed=0.0658x    frame=   65 fps= 14 q=59.0 size=       1kB time=00:00:00.44 bitrate=  13.3kbits/s speed=0.0924x    frame=   73 fps= 14 q=60.0 size=       1kB time=00:00:00.60 bitrate=   9.8kbits/s speed=0.114x    frame=   82 fps= 14 q=60.0 size=       1kB time=00:00:00.78 bitrate=   7.5kbits/s speed=0.134x    frame=   90 fps= 14 q=60.0 size=       1kB time=00:00:00.94 bitrate=   6.2kbits/s speed=0.148x    frame=   99 fps= 14 q=60.0 size=       1kB time=00:00:01.12 bitrate=   5.2kbits/s speed=0.162x    frame=  108 fps= 14 q=60.0 size=       1kB time=00:00:01.30 bitrate=   4.5kbits/s speed=0.173x    frame=  117 fps= 15 q=60.0 size=       1kB time=00:00:01.48 bitrate=   4.0kbits/s speed=0.184x    frame=  126 fps= 15 q=60.0 size=       1kB time=00:00:01.66 bitrate=   3.5kbits/s speed=0.193x    frame=  135 fps= 15 q=60.0 size=       1kB time=00:00:01.84 bitrate=   3.2kbits/s speed=0.201x    frame=  144 fps= 15 q=60.0 size=       1kB time=00:00:02.02 bitrate=   2.9kbits/s speed=0.209x    frame=  152 fps= 15 q=60.0 size=       1kB time=00:00:02.18 bitrate=   2.7kbits/s speed=0.213x    frame=  160 fps= 15 q=60.0 size=       1kB time=00:00:02.34 bitrate=   2.5kbits/s speed=0.214x    frame=  170 fps= 15 q=59.0 size=       1kB time=00:00:02.54 bitrate=   2.3kbits/s speed=0.22x    frame=  179 fps= 15 q=59.0 size=       1kB time=00:00:02.72 bitrate=   2.2kbits/s speed=0.226x    frame=  188 fps= 15 q=59.0 size=       1kB time=00:00:02.90 bitrate=   2.0kbits/s speed=0.229x    frame=  197 fps= 15 q=59.0 size=       1kB time=00:00:03.08 bitrate=   1.9kbits/s speed=0.234x    frame=  202 fps= 15 q=59.0 size=       1kB time=00:00:03.18 bitrate=   1.8kbits/s speed=0.23x    frame=  211 fps= 15 q=59.0 size=       1kB time=00:00:03.36 bitrate=   1.7kbits/s speed=0.234x    frame=  220 fps= 15 q=59.0 size=       1kB time=00:00:03.54 bitrate=   1.7kbits/s speed=0.238x    frame=  228 fps= 15 q=59.0 size=       1kB time=00:00:03.70 bitrate=   1.6kbits/s speed=0.24x    frame=  238 fps= 15 q=59.0 size=       1kB time=00:00:03.90 bitrate=   1.5kbits/s speed=0.243x    frame=  247 fps= 15 q=59.0 size=       1kB time=00:00:04.08 bitrate=   1.4kbits/s speed=0.246x    frame=  255 fps= 15 q=59.0 size=       1kB time=00:00:04.24 bitrate=   1.4kbits/s speed=0.248x    frame=  263 fps= 15 q=59.0 size=       1kB time=00:00:04.40 bitrate=   1.3kbits/s speed=0.25x    frame=  271 fps= 15 q=59.0 size=       1kB time=00:00:04.56 bitrate=   1.3kbits/s speed=0.252x    frame=  279 fps= 15 q=59.0 size=       1kB time=00:00:04.72 bitrate=   1.2kbits/s speed=0.253x    frame=  287 fps= 14 q=59.0 size=       1kB time=00:00:04.88 bitrate=   1.2kbits/s speed=0.246x    frame=  296 fps= 14 q=59.0 size=    2622kB time=00:00:05.06 bitrate=4244.8kbits/s speed=0.248x    frame=  305 fps= 15 q=59.0 size=    2622kB time=00:00:05.24 bitrate=4099.0kbits/s speed=0.25x    frame=  314 fps= 15 q=59.0 size=    2622kB time=00:00:05.42 bitrate=3962.9kbits/s speed=0.251x    frame=  322 fps= 15 q=59.0 size=    2622kB time=00:00:05.58 bitrate=3849.3kbits/s speed=0.252x    frame=  330 fps= 15 q=59.0 size=    2622kB time=00:00:05.74 bitrate=3742.0kbits/s speed=0.254x    frame=  339 fps= 15 q=59.0 size=    2622kB time=00:00:05.92 bitrate=3628.3kbits/s speed=0.255x    frame=  348 fps= 15 q=59.0 size=    2622kB time=00:00:06.10 bitrate=3521.2kbits/s speed=0.257x    frame=  355 fps= 15 q=59.0 size=    2622kB time=00:00:06.24 bitrate=3442.2kbits/s speed=0.257x    frame=  364 fps= 15 q=59.0 size=    2622kB time=00:00:06.42 bitrate=3345.7kbits/s speed=0.258x    frame=  371 fps= 14 q=59.0 size=    2622kB time=00:00:06.56 bitrate=3274.4kbits/s speed=0.256x    frame=  380 fps= 15 q=59.0 size=    2622kB time=00:00:06.74 bitrate=3186.9kbits/s speed=0.258x    frame=  389 fps= 15 q=60.0 size=    2622kB time=00:00:06.92 bitrate=3104.0kbits/s speed=0.259x    frame=  397 fps= 15 q=60.0 size=    2622kB time=00:00:07.08 bitrate=3033.9kbits/s speed=0.26x    frame=  405 fps= 15 q=60.0 size=    2622kB time=00:00:07.24 bitrate=2966.9kbits/s speed=0.261x    frame=  413 fps= 15 q=60.0 size=    2622kB time=00:00:07.40 bitrate=2902.7kbits/s speed=0.261x    frame=  422 fps= 15 q=60.0 size=    2622kB time=00:00:07.58 bitrate=2833.8kbits/s speed=0.262x    frame=  431 fps= 15 q=60.0 size=    2622kB time=00:00:07.76 bitrate=2768.1kbits/s speed=0.263x    frame=  440 fps= 15 q=60.0 size=    2622kB time=00:00:07.94 bitrate=2705.3kbits/s speed=0.264x    frame=  446 fps= 15 q=60.0 size=    2622kB time=00:00:08.06 bitrate=2665.1kbits/s speed=0.263x    frame=  455 fps= 15 q=60.0 size=    2622kB time=00:00:08.24 bitrate=2606.8kbits/s speed=0.264x    frame=  464 fps= 15 q=60.0 size=    2622kB time=00:00:08.42 bitrate=2551.1kbits/s speed=0.265x    frame=  471 fps= 15 q=60.0 size=    2622kB time=00:00:08.56 bitrate=2509.4kbits/s speed=0.265x    frame=  480 fps= 15 q=60.0 size=    2622kB time=00:00:08.74 bitrate=2457.7kbits/s speed=0.266x    frame=  488 fps= 15 q=60.0 size=    2622kB time=00:00:08.90 bitrate=2413.6kbits/s speed=0.266x    frame=  496 fps= 15 q=60.0 size=    2622kB time=00:00:09.06 bitrate=2370.9kbits/s speed=0.267x    frame=  500 fps= 14 q=-1.0 Lsize=    5260kB time=00:00:09.94 bitrate=4334.7kbits/s speed=0.275x    
video:5256kB audio:0kB subtitle:0kB other streams:0kB global headers:0kB muxing overhead: 0.081977%
bench: utime=122.548s
bench: maxrss=1595424kB
[libx264 @ 0x36cd1c0] frame I:2     Avg QP:44.36  size:122504
[libx264 @ 0x36cd1c0] frame P:126   Avg QP:50.84  size: 17359
[libx264 @ 0x36cd1c0] frame B:372   Avg QP:50.87  size:  7928
[libx264 @ 0x36cd1c0] consecutive B-frames:  0.8%  0.0%  0.0% 99.2%
[libx264 @ 0x36cd1c0] mb I  I16..4: 37.0% 57.9%  5.2%
[libx264 @ 0x36cd1c0] mb P  I16..4:  6.2%  2.5%  0.0%  P16..4: 16.6%  1.7%  3.8%  0.0%  0.0%    skip:69.3%
[libx264 @ 0x36cd1c0] mb B  I16..4:  0.1%  0.1%  0.0%  B16..8: 11.2%  0.2%  0.0%  direct: 4.0%  skip:84.5%  L0:45.9% L1:53.9% BI: 0.1%
[libx264 @ 0x36cd1c0] final ratefactor: 51.54
[libx264 @ 0x36cd1c0] 8x8 transform intra:33.5% inter:98.5%
[libx264 @ 0x36cd1c0] coded y,uvDC,uvAC intra: 7.0% 37.8% 2.6% inter: 0.9% 3.7% 0.0%
[libx264 @ 0x36cd1c0] i16 v,h,dc,p: 66% 22%  7%  5%
[libx264 @ 0x36cd1c0] i8 v,h,dc,ddl,ddr,vr,hd,vl,hu: 12%  7% 61%  4%  3%  4%  3%  3%  3%
[libx264 @ 0x36cd1c0] i4 v,h,dc,ddl,ddr,vr,hd,vl,hu: 25% 19% 12%  9%  8%  8%  7%  6%  5%
[libx264 @ 0x36cd1c0] i8c dc,h,v,p: 96%  1%  2%  0%
[libx264 @ 0x36cd1c0] Weighted P-Frames: Y:1.6% UV:0.0%
[libx264 @ 0x36cd1c0] ref P L0: 57.8% 42.2%
[libx264 @ 0x36cd1c0] ref B L0: 79.5% 20.5%
[libx264 @ 0x36cd1c0] ref B L1: 93.2%  6.8%
[libx264 @ 0x36cd1c0] kb/s:4305.04
